<?xml version="1.0" encoding="UTF-8" standalone="no"?>
<!DOCTYPE svg PUBLIC "-//W3C//DTD SVG 1.1//EN"
 "http://www.w3.org/Graphics/SVG/1.1/DTD/svg11.dtd">
<!-- Generated by graphviz version 2.43.0 (0)
 -->
<!-- Title: G Pages: 1 -->
<svg width="1123pt" height="639pt"
 viewBox="0.00 0.00 1123.20 638.76" xmlns="http://www.w3.org/2000/svg" xmlns:xlink="http://www.w3.org/1999/xlink">
<g id="graph0" class="graph" transform="scale(1 1) rotate(0) translate(21.6 617.16)">
<title>G</title>
<polygon fill="#111111" stroke="transparent" points="-21.6,21.6 -21.6,-617.16 1101.6,-617.16 1101.6,21.6 -21.6,21.6"/>
<!-- App.tsx -->
<g id="node1" class="node">
<title>App.tsx</title>
<path fill="none" stroke="#c6c5fe" d="M184.83,-384.6C184.83,-384.6 138.17,-384.6 138.17,-384.6 134.33,-384.6 130.5,-380.77 130.5,-376.93 130.5,-376.93 130.5,-369.27 130.5,-369.27 130.5,-365.43 134.33,-361.6 138.17,-361.6 138.17,-361.6 184.83,-361.6 184.83,-361.6 188.67,-361.6 192.5,-365.43 192.5,-369.27 192.5,-369.27 192.5,-376.93 192.5,-376.93 192.5,-380.77 188.67,-384.6 184.83,-384.6"/>
<text text-anchor="middle" x="161.5" y="-369.4" font-family="Arial" font-size="14.00" fill="#c6c5fe">App.tsx</text>
</g>
<!-- components/CardInfo.tsx -->
<g id="node2" class="node">
<title>components/CardInfo.tsx</title>
<path fill="none" stroke="#c6c5fe" d="M677.83,-506.6C677.83,-506.6 526.17,-506.6 526.17,-506.6 522.33,-506.6 518.5,-502.77 518.5,-498.93 518.5,-498.93 518.5,-491.27 518.5,-491.27 518.5,-487.43 522.33,-483.6 526.17,-483.6 526.17,-483.6 677.83,-483.6 677.83,-483.6 681.67,-483.6 685.5,-487.43 685.5,-491.27 685.5,-491.27 685.5,-498.93 685.5,-498.93 685.5,-502.77 681.67,-506.6 677.83,-506.6"/>
<text text-anchor="middle" x="602" y="-491.4" font-family="Arial" font-size="14.00" fill="#c6c5fe">components/CardInfo.tsx</text>
</g>
<!-- App.tsx&#45;&gt;components/CardInfo.tsx -->
<g id="edge1" class="edge">
<title>App.tsx&#45;&gt;components/CardInfo.tsx</title>
<path fill="none" stroke="#757575" d="M169.6,-384.73C180.87,-402.05 204.61,-434.16 234,-449.1 319.74,-492.68 430.77,-501.01 508.16,-500.42"/>
<polygon fill="#757575" stroke="#757575" points="508.42,-503.92 518.37,-500.29 508.33,-496.92 508.42,-503.92"/>
</g>
<!-- components/CardList.tsx -->
<g id="node3" class="node">
<title>components/CardList.tsx</title>
<path fill="none" stroke="#c6c5fe" d="M677.33,-465.6C677.33,-465.6 526.67,-465.6 526.67,-465.6 522.83,-465.6 519,-461.77 519,-457.93 519,-457.93 519,-450.27 519,-450.27 519,-446.43 522.83,-442.6 526.67,-442.6 526.67,-442.6 677.33,-442.6 677.33,-442.6 681.17,-442.6 685,-446.43 685,-450.27 685,-450.27 685,-457.93 685,-457.93 685,-461.77 681.17,-465.6 677.33,-465.6"/>
<text text-anchor="middle" x="602" y="-450.4" font-family="Arial" font-size="14.00" fill="#c6c5fe">components/CardList.tsx</text>
</g>
<!-- App.tsx&#45;&gt;components/CardList.tsx -->
<g id="edge2" class="edge">
<title>App.tsx&#45;&gt;components/CardList.tsx</title>
<path fill="none" stroke="#757575" d="M176.85,-384.66C190.62,-395.07 212.46,-409.82 234,-417.1 323.95,-447.52 432.82,-455.11 508.52,-456.12"/>
<polygon fill="#757575" stroke="#757575" points="508.94,-459.62 518.97,-456.22 509.01,-452.62 508.94,-459.62"/>
</g>
<!-- components/CardStatistics.tsx -->
<g id="node4" class="node">
<title>components/CardStatistics.tsx</title>
<path fill="none" stroke="#c6c5fe" d="M693.83,-424.6C693.83,-424.6 510.17,-424.6 510.17,-424.6 506.33,-424.6 502.5,-420.77 502.5,-416.93 502.5,-416.93 502.5,-409.27 502.5,-409.27 502.5,-405.43 506.33,-401.6 510.17,-401.6 510.17,-401.6 693.83,-401.6 693.83,-401.6 697.67,-401.6 701.5,-405.43 701.5,-409.27 701.5,-409.27 701.5,-416.93 701.5,-416.93 701.5,-420.77 697.67,-424.6 693.83,-424.6"/>
<text text-anchor="middle" x="602" y="-409.4" font-family="Arial" font-size="14.00" fill="#c6c5fe">components/CardStatistics.tsx</text>
</g>
<!-- App.tsx&#45;&gt;components/CardStatistics.tsx -->
<g id="edge3" class="edge">
<title>App.tsx&#45;&gt;components/CardStatistics.tsx</title>
<path fill="none" stroke="#757575" d="M192.75,-383.69C205.35,-387.65 220.23,-391.75 234,-394.1 319.9,-408.73 418.6,-413.16 492,-414.1"/>
<polygon fill="#757575" stroke="#757575" points="492.14,-417.61 502.18,-414.22 492.22,-410.61 492.14,-417.61"/>
</g>
<!-- components/ExportButton.tsx -->
<g id="node5" class="node">
<title>components/ExportButton.tsx</title>
<path fill="none" stroke="#c6c5fe" d="M437.33,-384.6C437.33,-384.6 258.67,-384.6 258.67,-384.6 254.83,-384.6 251,-380.77 251,-376.93 251,-376.93 251,-369.27 251,-369.27 251,-365.43 254.83,-361.6 258.67,-361.6 258.67,-361.6 437.33,-361.6 437.33,-361.6 441.17,-361.6 445,-365.43 445,-369.27 445,-369.27 445,-376.93 445,-376.93 445,-380.77 441.17,-384.6 437.33,-384.6"/>
<text text-anchor="middle" x="348" y="-369.4" font-family="Arial" font-size="14.00" fill="#c6c5fe">components/ExportButton.tsx</text>
</g>
<!-- App.tsx&#45;&gt;components/ExportButton.tsx -->
<g id="edge4" class="edge">
<title>App.tsx&#45;&gt;components/ExportButton.tsx</title>
<path fill="none" stroke="#757575" d="M192.55,-373.1C206.04,-373.1 222.85,-373.1 240.36,-373.1"/>
<polygon fill="#757575" stroke="#757575" points="240.74,-376.6 250.74,-373.1 240.74,-369.6 240.74,-376.6"/>
</g>
<!-- components/ManualInputModal.tsx -->
<g id="node6" class="node">
<title>components/ManualInputModal.tsx</title>
<path fill="none" stroke="#cfffac" d="M454.33,-147.6C454.33,-147.6 241.67,-147.6 241.67,-147.6 237.83,-147.6 234,-143.77 234,-139.93 234,-139.93 234,-132.27 234,-132.27 234,-128.43 237.83,-124.6 241.67,-124.6 241.67,-124.6 454.33,-124.6 454.33,-124.6 458.17,-124.6 462,-128.43 462,-132.27 462,-132.27 462,-139.93 462,-139.93 462,-143.77 458.17,-147.6 454.33,-147.6"/>
<text text-anchor="middle" x="348" y="-132.4" font-family="Arial" font-size="14.00" fill="#cfffac">components/ManualInputModal.tsx</text>
</g>
<!-- App.tsx&#45;&gt;components/ManualInputModal.tsx -->
<g id="edge5" class="edge">
<title>App.tsx&#45;&gt;components/ManualInputModal.tsx</title>
<path fill="none" stroke="#757575" d="M189.44,-361.46C192.71,-359.1 195.7,-356.33 198,-353.1 249.66,-280.62 170.89,-218.86 234,-156.1 234.81,-155.29 235.65,-154.51 236.5,-153.75"/>
<polygon fill="#757575" stroke="#757575" points="238.77,-156.43 244.65,-147.61 234.55,-150.84 238.77,-156.43"/>
</g>
<!-- components/Sidebar.tsx -->
<g id="node7" class="node">
<title>components/Sidebar.tsx</title>
<path fill="none" stroke="#c6c5fe" d="M420.83,-308.6C420.83,-308.6 275.17,-308.6 275.17,-308.6 271.33,-308.6 267.5,-304.77 267.5,-300.93 267.5,-300.93 267.5,-293.27 267.5,-293.27 267.5,-289.43 271.33,-285.6 275.17,-285.6 275.17,-285.6 420.83,-285.6 420.83,-285.6 424.67,-285.6 428.5,-289.43 428.5,-293.27 428.5,-293.27 428.5,-300.93 428.5,-300.93 428.5,-304.77 424.67,-308.6 420.83,-308.6"/>
<text text-anchor="middle" x="348" y="-293.4" font-family="Arial" font-size="14.00" fill="#c6c5fe">components/Sidebar.tsx</text>
</g>
<!-- App.tsx&#45;&gt;components/Sidebar.tsx -->
<g id="edge6" class="edge">
<title>App.tsx&#45;&gt;components/Sidebar.tsx</title>
<path fill="none" stroke="#757575" d="M190.52,-361.56C222.31,-348.46 274.3,-327.05 309.55,-312.53"/>
<polygon fill="#757575" stroke="#757575" points="311.1,-315.67 319.02,-308.63 308.44,-309.2 311.1,-315.67"/>
</g>
<!-- components/UploaderModal.tsx -->
<g id="node8" class="node">
<title>components/UploaderModal.tsx</title>
<path fill="none" stroke="#c6c5fe" d="M444.33,-188.6C444.33,-188.6 251.67,-188.6 251.67,-188.6 247.83,-188.6 244,-184.77 244,-180.93 244,-180.93 244,-173.27 244,-173.27 244,-169.43 247.83,-165.6 251.67,-165.6 251.67,-165.6 444.33,-165.6 444.33,-165.6 448.17,-165.6 452,-169.43 452,-173.27 452,-173.27 452,-180.93 452,-180.93 452,-184.77 448.17,-188.6 444.33,-188.6"/>
<text text-anchor="middle" x="348" y="-173.4" font-family="Arial" font-size="14.00" fill="#c6c5fe">components/UploaderModal.tsx</text>
</g>
<!-- App.tsx&#45;&gt;components/UploaderModal.tsx -->
<g id="edge7" class="edge">
<title>App.tsx&#45;&gt;components/UploaderModal.tsx</title>
<path fill="none" stroke="#757575" d="M188.92,-361.59C192.35,-359.19 195.53,-356.37 198,-353.1 239.31,-298.38 185.29,-251.35 234,-203.1 237.7,-199.43 241.81,-196.24 246.21,-193.46"/>
<polygon fill="#757575" stroke="#757575" points="247.92,-196.52 254.99,-188.62 244.54,-190.39 247.92,-196.52"/>
</g>
<!-- services/scryfallApi.ts -->
<g id="node9" class="node">
<title>services/scryfallApi.ts</title>
<path fill="none" stroke="#c6c5fe" d="M926.83,-145.6C926.83,-145.6 796.17,-145.6 796.17,-145.6 792.33,-145.6 788.5,-141.77 788.5,-137.93 788.5,-137.93 788.5,-130.27 788.5,-130.27 788.5,-126.43 792.33,-122.6 796.17,-122.6 796.17,-122.6 926.83,-122.6 926.83,-122.6 930.67,-122.6 934.5,-126.43 934.5,-130.27 934.5,-130.27 934.5,-137.93 934.5,-137.93 934.5,-141.77 930.67,-145.6 926.83,-145.6"/>
<text text-anchor="middle" x="861.5" y="-130.4" font-family="Arial" font-size="14.00" fill="#c6c5fe">services/scryfallApi.ts</text>
</g>
<!-- App.tsx&#45;&gt;services/scryfallApi.ts -->
<g id="edge8" class="edge">
<title>App.tsx&#45;&gt;services/scryfallApi.ts</title>
<path fill="none" stroke="#757575" d="M187.62,-361.59C191.4,-359.15 195.02,-356.32 198,-353.1 223.68,-325.39 204.53,-299.74 234,-276.1 401.62,-141.61 502.69,-240.75 706,-171.1 722.74,-165.37 725.12,-159.4 742,-154.1 753.62,-150.45 766.11,-147.43 778.46,-144.93"/>
<polygon fill="#757575" stroke="#757575" points="779.15,-148.36 788.32,-143.04 777.84,-141.49 779.15,-148.36"/>
</g>
<!-- types.ts -->
<g id="node10" class="node">
<title>types.ts</title>
<path fill="none" stroke="#cfffac" d="M1072.33,-348.6C1072.33,-348.6 1024.67,-348.6 1024.67,-348.6 1020.83,-348.6 1017,-344.77 1017,-340.93 1017,-340.93 1017,-333.27 1017,-333.27 1017,-329.43 1020.83,-325.6 1024.67,-325.6 1024.67,-325.6 1072.33,-325.6 1072.33,-325.6 1076.17,-325.6 1080,-329.43 1080,-333.27 1080,-333.27 1080,-340.93 1080,-340.93 1080,-344.77 1076.17,-348.6 1072.33,-348.6"/>
<text text-anchor="middle" x="1048.5" y="-333.4" font-family="Arial" font-size="14.00" fill="#cfffac">types.ts</text>
</g>
<!-- App.tsx&#45;&gt;types.ts -->
<g id="edge9" class="edge">
<title>App.tsx&#45;&gt;types.ts</title>
<path fill="none" stroke="#757575" d="M165.91,-384.66C173.63,-408.57 194.89,-463.3 234,-488.1 374.63,-577.27 846.65,-645.48 981,-547.1 1041.46,-502.83 1048.32,-403.3 1048.22,-359.04"/>
<polygon fill="#757575" stroke="#757575" points="1051.72,-358.76 1048.06,-348.81 1044.72,-358.86 1051.72,-358.76"/>
</g>
<!-- components/CardInfo.tsx&#45;&gt;types.ts -->
<g id="edge11" class="edge">
<title>components/CardInfo.tsx&#45;&gt;types.ts</title>
<path fill="none" stroke="#757575" d="M630.3,-506.77C697.05,-533.32 871.07,-590.23 981,-514.1 1032.33,-478.55 1044.1,-398.1 1046.75,-359.11"/>
<polygon fill="#757575" stroke="#757575" points="1050.26,-359.03 1047.3,-348.86 1043.27,-358.66 1050.26,-359.03"/>
</g>
<!-- components/CardVersionSelector.tsx -->
<g id="node11" class="node">
<title>components/CardVersionSelector.tsx</title>
<path fill="none" stroke="#c6c5fe" d="M973.33,-504.6C973.33,-504.6 749.67,-504.6 749.67,-504.6 745.83,-504.6 742,-500.77 742,-496.93 742,-496.93 742,-489.27 742,-489.27 742,-485.43 745.83,-481.6 749.67,-481.6 749.67,-481.6 973.33,-481.6 973.33,-481.6 977.17,-481.6 981,-485.43 981,-489.27 981,-489.27 981,-496.93 981,-496.93 981,-500.77 977.17,-504.6 973.33,-504.6"/>
<text text-anchor="middle" x="861.5" y="-489.4" font-family="Arial" font-size="14.00" fill="#c6c5fe">components/CardVersionSelector.tsx</text>
</g>
<!-- components/CardInfo.tsx&#45;&gt;components/CardVersionSelector.tsx -->
<g id="edge10" class="edge">
<title>components/CardInfo.tsx&#45;&gt;components/CardVersionSelector.tsx</title>
<path fill="none" stroke="#757575" d="M685.54,-494.46C700.26,-494.34 715.91,-494.22 731.57,-494.1"/>
<polygon fill="#757575" stroke="#757575" points="731.87,-497.6 741.84,-494.02 731.82,-490.6 731.87,-497.6"/>
</g>
<!-- components/CardList.tsx&#45;&gt;types.ts -->
<g id="edge13" class="edge">
<title>components/CardList.tsx&#45;&gt;types.ts</title>
<path fill="none" stroke="#757575" d="M685.01,-465.25C765.38,-472.19 888.89,-471.91 981,-422.1 1007.49,-407.78 1026.92,-377.94 1037.73,-357.71"/>
<polygon fill="#757575" stroke="#757575" points="1040.91,-359.16 1042.33,-348.66 1034.68,-355.99 1040.91,-359.16"/>
</g>
<!-- utils/commonHooks.ts -->
<g id="node13" class="node">
<title>utils/commonHooks.ts</title>
<path fill="none" stroke="#cfffac" d="M928.83,-348.6C928.83,-348.6 794.17,-348.6 794.17,-348.6 790.33,-348.6 786.5,-344.77 786.5,-340.93 786.5,-340.93 786.5,-333.27 786.5,-333.27 786.5,-329.43 790.33,-325.6 794.17,-325.6 794.17,-325.6 928.83,-325.6 928.83,-325.6 932.67,-325.6 936.5,-329.43 936.5,-333.27 936.5,-333.27 936.5,-340.93 936.5,-340.93 936.5,-344.77 932.67,-348.6 928.83,-348.6"/>
<text text-anchor="middle" x="861.5" y="-333.4" font-family="Arial" font-size="14.00" fill="#cfffac">utils/commonHooks.ts</text>
</g>
<!-- components/CardList.tsx&#45;&gt;utils/commonHooks.ts -->
<g id="edge14" class="edge">
<title>components/CardList.tsx&#45;&gt;utils/commonHooks.ts</title>
<path fill="none" stroke="#757575" d="M679.29,-442.59C688.44,-440.25 697.53,-437.45 706,-434.1 756.72,-414.06 809.11,-377.1 837.97,-355.04"/>
<polygon fill="#757575" stroke="#757575" points="840.38,-357.6 846.15,-348.71 836.1,-352.06 840.38,-357.6"/>
</g>
<!-- components/CardStatistics.tsx&#45;&gt;types.ts -->
<g id="edge15" class="edge">
<title>components/CardStatistics.tsx&#45;&gt;types.ts</title>
<path fill="none" stroke="#757575" d="M701.63,-423.56C780.02,-428.11 891.06,-425.99 981,-391.1 1000.29,-383.62 1018.25,-368.32 1030.64,-355.91"/>
<polygon fill="#757575" stroke="#757575" points="1033.2,-358.3 1037.59,-348.65 1028.14,-353.45 1033.2,-358.3"/>
</g>
<!-- components/ExportButton.tsx&#45;&gt;types.ts -->
<g id="edge21" class="edge">
<title>components/ExportButton.tsx&#45;&gt;types.ts</title>
<path fill="none" stroke="#757575" d="M445.08,-379.16C569.64,-385.13 793.16,-389.34 981,-358.1 989.67,-356.66 998.77,-354.35 1007.36,-351.77"/>
<polygon fill="#757575" stroke="#757575" points="1008.68,-355.03 1017.15,-348.67 1006.56,-348.35 1008.68,-355.03"/>
</g>
<!-- components/Sidebar.tsx&#45;&gt;types.ts -->
<g id="edge25" class="edge">
<title>components/Sidebar.tsx&#45;&gt;types.ts</title>
<path fill="none" stroke="#757575" d="M428.51,-292.53C548.99,-287.16 784.57,-282.79 981,-316.1 989.67,-317.57 998.76,-319.89 1007.35,-322.47"/>
<polygon fill="#757575" stroke="#757575" points="1006.55,-325.89 1017.14,-325.58 1008.67,-319.22 1006.55,-325.89"/>
</g>
<!-- components/CardUploader.tsx -->
<g id="node15" class="node">
<title>components/CardUploader.tsx</title>
<path fill="none" stroke="#c6c5fe" d="M693.83,-268.6C693.83,-268.6 510.17,-268.6 510.17,-268.6 506.33,-268.6 502.5,-264.77 502.5,-260.93 502.5,-260.93 502.5,-253.27 502.5,-253.27 502.5,-249.43 506.33,-245.6 510.17,-245.6 510.17,-245.6 693.83,-245.6 693.83,-245.6 697.67,-245.6 701.5,-249.43 701.5,-253.27 701.5,-253.27 701.5,-260.93 701.5,-260.93 701.5,-264.77 697.67,-268.6 693.83,-268.6"/>
<text text-anchor="middle" x="602" y="-253.4" font-family="Arial" font-size="14.00" fill="#c6c5fe">components/CardUploader.tsx</text>
</g>
<!-- components/Sidebar.tsx&#45;&gt;components/CardUploader.tsx -->
<g id="edge24" class="edge">
<title>components/Sidebar.tsx&#45;&gt;components/CardUploader.tsx</title>
<path fill="none" stroke="#757575" d="M421.55,-285.58C451.86,-280.77 487.23,-275.16 518.52,-270.19"/>
<polygon fill="#757575" stroke="#757575" points="519.2,-273.63 528.53,-268.6 518.1,-266.71 519.2,-273.63"/>
</g>
<!-- components/UploaderModal.tsx&#45;&gt;services/scryfallApi.ts -->
<g id="edge27" class="edge">
<title>components/UploaderModal.tsx&#45;&gt;services/scryfallApi.ts</title>
<path fill="none" stroke="#757575" d="M452.2,-168.42C548.3,-160.35 689.69,-148.46 778.35,-141.01"/>
<polygon fill="#757575" stroke="#757575" points="778.69,-144.49 788.36,-140.16 778.1,-137.51 778.69,-144.49"/>
</g>
<!-- components/UploaderModal.tsx&#45;&gt;types.ts -->
<g id="edge28" class="edge">
<title>components/UploaderModal.tsx&#45;&gt;types.ts</title>
<path fill="none" stroke="#757575" d="M444.88,-165.58C450.93,-162.96 456.7,-159.84 462,-156.1 488.04,-137.74 470.58,-110.34 498,-94.1 682.72,15.29 810.73,42.66 981,-88.1 1017.52,-116.15 1038.3,-260.05 1045.05,-315.38"/>
<polygon fill="#757575" stroke="#757575" points="1041.59,-315.97 1046.24,-325.49 1048.54,-315.15 1041.59,-315.97"/>
</g>
<!-- components/UploaderModal.tsx&#45;&gt;components/CardUploader.tsx -->
<g id="edge26" class="edge">
<title>components/UploaderModal.tsx&#45;&gt;components/CardUploader.tsx</title>
<path fill="none" stroke="#757575" d="M385.37,-188.65C430.13,-202.86 506.17,-227 554.96,-242.48"/>
<polygon fill="#757575" stroke="#757575" points="554.05,-245.87 564.64,-245.56 556.16,-239.19 554.05,-245.87"/>
</g>
<!-- services/scryfallApi.ts&#45;&gt;types.ts -->
<g id="edge31" class="edge">
<title>services/scryfallApi.ts&#45;&gt;types.ts</title>
<path fill="none" stroke="#757575" d="M934.72,-134.19C951.39,-137.31 968.02,-143.28 981,-154.1 1030.4,-195.26 1043.1,-276.29 1046.37,-315.22"/>
<polygon fill="#757575" stroke="#757575" points="1042.89,-315.7 1047.09,-325.43 1049.88,-315.21 1042.89,-315.7"/>
</g>
<!-- components/CardVersionSelector.tsx&#45;&gt;types.ts -->
<g id="edge20" class="edge">
<title>components/CardVersionSelector.tsx&#45;&gt;types.ts</title>
<path fill="none" stroke="#757575" d="M954.81,-481.5C964.21,-477.85 973.16,-473.15 981,-467.1 1016.42,-439.78 1034.61,-388.36 1042.49,-359.04"/>
<polygon fill="#757575" stroke="#757575" points="1045.97,-359.53 1045.02,-348.98 1039.18,-357.83 1045.97,-359.53"/>
</g>
<!-- components/CardItem.tsx -->
<g id="node12" class="node">
<title>components/CardItem.tsx</title>
<path fill="none" stroke="#c6c5fe" d="M939.83,-227.6C939.83,-227.6 783.17,-227.6 783.17,-227.6 779.33,-227.6 775.5,-223.77 775.5,-219.93 775.5,-219.93 775.5,-212.27 775.5,-212.27 775.5,-208.43 779.33,-204.6 783.17,-204.6 783.17,-204.6 939.83,-204.6 939.83,-204.6 943.67,-204.6 947.5,-208.43 947.5,-212.27 947.5,-212.27 947.5,-219.93 947.5,-219.93 947.5,-223.77 943.67,-227.6 939.83,-227.6"/>
<text text-anchor="middle" x="861.5" y="-212.4" font-family="Arial" font-size="14.00" fill="#c6c5fe">components/CardItem.tsx</text>
</g>
<!-- components/CardItem.tsx&#45;&gt;types.ts -->
<g id="edge12" class="edge">
<title>components/CardItem.tsx&#45;&gt;types.ts</title>
<path fill="none" stroke="#757575" d="M947.63,-221.71C959.44,-224.93 970.95,-229.55 981,-236.1 1010.41,-255.28 1029.78,-292.51 1039.67,-316.02"/>
<polygon fill="#757575" stroke="#757575" points="1036.48,-317.46 1043.44,-325.45 1042.98,-314.86 1036.48,-317.46"/>
</g>
<!-- components/CardUpload.tsx -->
<g id="node14" class="node">
<title>components/CardUpload.tsx</title>
<path fill="none" stroke="#c6c5fe" d="M947.83,-186.6C947.83,-186.6 775.17,-186.6 775.17,-186.6 771.33,-186.6 767.5,-182.77 767.5,-178.93 767.5,-178.93 767.5,-171.27 767.5,-171.27 767.5,-167.43 771.33,-163.6 775.17,-163.6 775.17,-163.6 947.83,-163.6 947.83,-163.6 951.67,-163.6 955.5,-167.43 955.5,-171.27 955.5,-171.27 955.5,-178.93 955.5,-178.93 955.5,-182.77 951.67,-186.6 947.83,-186.6"/>
<text text-anchor="middle" x="861.5" y="-171.4" font-family="Arial" font-size="14.00" fill="#c6c5fe">components/CardUpload.tsx</text>
</g>
<!-- components/CardUpload.tsx&#45;&gt;types.ts -->
<g id="edge16" class="edge">
<title>components/CardUpload.tsx&#45;&gt;types.ts</title>
<path fill="none" stroke="#757575" d="M955.77,-181.78C964.83,-185.02 973.44,-189.35 981,-195.1 1020.16,-224.87 1037.17,-283.36 1043.79,-315.19"/>
<polygon fill="#757575" stroke="#757575" points="1040.4,-316.09 1045.71,-325.25 1047.27,-314.77 1040.4,-316.09"/>
</g>
<!-- components/CardUploader.tsx&#45;&gt;services/scryfallApi.ts -->
<g id="edge18" class="edge">
<title>components/CardUploader.tsx&#45;&gt;services/scryfallApi.ts</title>
<path fill="none" stroke="#757575" d="M680.89,-245.52C689.97,-241.91 698.61,-237.21 706,-231.1 735.13,-207.04 711.93,-176.97 742,-154.1 752.59,-146.05 765.25,-140.76 778.3,-137.37"/>
<polygon fill="#757575" stroke="#757575" points="779.32,-140.73 788.32,-135.13 777.8,-133.9 779.32,-140.73"/>
</g>
<!-- components/CardUploader.tsx&#45;&gt;utils/commonHooks.ts -->
<g id="edge19" class="edge">
<title>components/CardUploader.tsx&#45;&gt;utils/commonHooks.ts</title>
<path fill="none" stroke="#757575" d="M640.17,-268.65C686,-282.89 763.93,-307.1 813.77,-322.58"/>
<polygon fill="#757575" stroke="#757575" points="812.76,-325.93 823.34,-325.56 814.83,-319.25 812.76,-325.93"/>
</g>
<!-- services/googleVisionApi.ts -->
<g id="node16" class="node">
<title>services/googleVisionApi.ts</title>
<path fill="none" stroke="#cfffac" d="M944.33,-268.6C944.33,-268.6 778.67,-268.6 778.67,-268.6 774.83,-268.6 771,-264.77 771,-260.93 771,-260.93 771,-253.27 771,-253.27 771,-249.43 774.83,-245.6 778.67,-245.6 778.67,-245.6 944.33,-245.6 944.33,-245.6 948.17,-245.6 952,-249.43 952,-253.27 952,-253.27 952,-260.93 952,-260.93 952,-264.77 948.17,-268.6 944.33,-268.6"/>
<text text-anchor="middle" x="861.5" y="-253.4" font-family="Arial" font-size="14.00" fill="#cfffac">services/googleVisionApi.ts</text>
</g>
<!-- components/CardUploader.tsx&#45;&gt;services/googleVisionApi.ts -->
<g id="edge17" class="edge">
<title>components/CardUploader.tsx&#45;&gt;services/googleVisionApi.ts</title>
<path fill="none" stroke="#757575" d="M701.82,-257.1C721.14,-257.1 741.42,-257.1 760.77,-257.1"/>
<polygon fill="#757575" stroke="#757575" points="760.8,-260.6 770.8,-257.1 760.8,-253.6 760.8,-260.6"/>
</g>
<!-- components/ImageUploader.tsx -->
<g id="node17" class="node">
<title>components/ImageUploader.tsx</title>
<path fill="none" stroke="#c6c5fe" d="M698.33,-126.6C698.33,-126.6 505.67,-126.6 505.67,-126.6 501.83,-126.6 498,-122.77 498,-118.93 498,-118.93 498,-111.27 498,-111.27 498,-107.43 501.83,-103.6 505.67,-103.6 505.67,-103.6 698.33,-103.6 698.33,-103.6 702.17,-103.6 706,-107.43 706,-111.27 706,-111.27 706,-118.93 706,-118.93 706,-122.77 702.17,-126.6 698.33,-126.6"/>
<text text-anchor="middle" x="602" y="-111.4" font-family="Arial" font-size="14.00" fill="#c6c5fe">components/ImageUploader.tsx</text>
</g>
<!-- components/ImageUploader.tsx&#45;&gt;services/scryfallApi.ts -->
<g id="edge22" class="edge">
<title>components/ImageUploader.tsx&#45;&gt;services/scryfallApi.ts</title>
<path fill="none" stroke="#757575" d="M706.25,-122.72C730.26,-124.49 755.51,-126.35 778.46,-128.05"/>
<polygon fill="#757575" stroke="#757575" points="778.26,-131.54 788.49,-128.79 778.77,-124.56 778.26,-131.54"/>
</g>
<!-- components/ImageUploader.tsx&#45;&gt;types.ts -->
<g id="edge23" class="edge">
<title>components/ImageUploader.tsx&#45;&gt;types.ts</title>
<path fill="none" stroke="#757575" d="M684.62,-103.59C781.58,-91.78 935.9,-79.44 981,-113.1 1014.01,-137.74 1036.5,-264.27 1044.38,-315.51"/>
<polygon fill="#757575" stroke="#757575" points="1040.94,-316.14 1045.88,-325.51 1047.86,-315.1 1040.94,-316.14"/>
</g>
<!-- index.css -->
<g id="node18" class="node">
<title>index.css</title>
<path fill="none" stroke="#cfffac" d="M190.33,-343.6C190.33,-343.6 132.67,-343.6 132.67,-343.6 128.83,-343.6 125,-339.77 125,-335.93 125,-335.93 125,-328.27 125,-328.27 125,-324.43 128.83,-320.6 132.67,-320.6 132.67,-320.6 190.33,-320.6 190.33,-320.6 194.17,-320.6 198,-324.43 198,-328.27 198,-328.27 198,-335.93 198,-335.93 198,-339.77 194.17,-343.6 190.33,-343.6"/>
<text text-anchor="middle" x="161.5" y="-328.4" font-family="Arial" font-size="14.00" fill="#cfffac">index.css</text>
</g>
<!-- main.tsx -->
<g id="node19" class="node">
<title>main.tsx</title>
<path fill="none" stroke="#c6c5fe" d="M70.83,-363.6C70.83,-363.6 18.17,-363.6 18.17,-363.6 14.33,-363.6 10.5,-359.77 10.5,-355.93 10.5,-355.93 10.5,-348.27 10.5,-348.27 10.5,-344.43 14.33,-340.6 18.17,-340.6 18.17,-340.6 70.83,-340.6 70.83,-340.6 74.67,-340.6 78.5,-344.43 78.5,-348.27 78.5,-348.27 78.5,-355.93 78.5,-355.93 78.5,-359.77 74.67,-363.6 70.83,-363.6"/>
<text text-anchor="middle" x="44.5" y="-348.4" font-family="Arial" font-size="14.00" fill="#c6c5fe">main.tsx</text>
</g>
<!-- main.tsx&#45;&gt;App.tsx -->
<g id="edge29" class="edge">
<title>main.tsx&#45;&gt;App.tsx</title>
<path fill="none" stroke="#757575" d="M78.76,-358.17C91.77,-360.55 106.79,-363.29 120.39,-365.78"/>
<polygon fill="#757575" stroke="#757575" points="119.99,-369.26 130.45,-367.61 121.24,-362.37 119.99,-369.26"/>
</g>
<!-- main.tsx&#45;&gt;index.css -->
<g id="edge30" class="edge">
<title>main.tsx&#45;&gt;index.css</title>
<path fill="none" stroke="#757575" d="M78.76,-346.31C90.06,-344.35 102.89,-342.12 114.97,-340.02"/>
<polygon fill="#757575" stroke="#757575" points="115.65,-343.45 124.9,-338.29 114.45,-336.56 115.65,-343.45"/>
</g>
<!-- vite&#45;env.d.ts -->
<g id="node20" class="node">
<title>vite&#45;env.d.ts</title>
<path fill="none" stroke="#cfffac" d="M81.33,-404.6C81.33,-404.6 7.67,-404.6 7.67,-404.6 3.83,-404.6 0,-400.77 0,-396.93 0,-396.93 0,-389.27 0,-389.27 0,-385.43 3.83,-381.6 7.67,-381.6 7.67,-381.6 81.33,-381.6 81.33,-381.6 85.17,-381.6 89,-385.43 89,-389.27 89,-389.27 89,-396.93 89,-396.93 89,-400.77 85.17,-404.6 81.33,-404.6"/>
<text text-anchor="middle" x="44.5" y="-389.4" font-family="Arial" font-size="14.00" fill="#cfffac">vite&#45;env.d.ts</text>
</g>
</g>
</svg>
